<svg width="111" height="12" viewBox="0 0 111 12" fill="none" xmlns="http://www.w3.org/2000/svg">
<path d="M8.38037 6.62744C8.38037 7.37451 8.16797 7.9458 7.74316 8.34131C7.32324 8.73193 6.72754 8.92725 5.95605 8.92725C5.18945 8.92725 4.57422 8.6709 4.11035 8.1582C3.65137 7.64062 3.42188 6.9375 3.42188 6.04883V5.24316C3.42188 4.38379 3.65381 3.69775 4.11768 3.18506C4.58643 2.66748 5.19922 2.40869 5.95605 2.40869C6.7373 2.40869 7.33789 2.60889 7.75781 3.00928C8.17773 3.40967 8.3877 3.97363 8.3877 4.70117H7.31836C7.31836 4.21777 7.20117 3.87354 6.9668 3.66846C6.7373 3.4585 6.40039 3.35352 5.95605 3.35352C5.49707 3.35352 5.13574 3.52197 4.87207 3.85889C4.6084 4.1958 4.47656 4.66455 4.47656 5.26514V6.09277C4.47656 6.67871 4.6084 7.14014 4.87207 7.47705C5.13574 7.81396 5.49707 7.98242 5.95605 7.98242C6.40527 7.98242 6.74219 7.87988 6.9668 7.6748C7.19629 7.46973 7.31104 7.12061 7.31104 6.62744H8.38037ZM1.69336 5.66064C1.69336 6.50049 1.88867 7.2793 2.2793 7.99707C2.66992 8.70996 3.19971 9.26904 3.86865 9.67432C4.54248 10.0796 5.27002 10.2822 6.05127 10.2822C6.83252 10.2822 7.55762 10.0796 8.22656 9.67432C8.89551 9.26904 9.42529 8.70996 9.81592 7.99707C10.2065 7.2793 10.4019 6.50049 10.4019 5.66064C10.4019 4.83057 10.209 4.06152 9.82324 3.35352C9.4375 2.64551 8.90771 2.08887 8.23389 1.68359C7.56494 1.27344 6.8374 1.06836 6.05127 1.06836C5.27002 1.06836 4.54248 1.271 3.86865 1.67627C3.19482 2.07666 2.6626 2.6333 2.27197 3.34619C1.88623 4.05908 1.69336 4.83057 1.69336 5.66064ZM0.851074 5.66064C0.851074 4.67432 1.07812 3.75879 1.53223 2.91406C1.99121 2.06934 2.62354 1.40527 3.4292 0.921875C4.23975 0.433594 5.11377 0.189453 6.05127 0.189453C6.98877 0.189453 7.86035 0.433594 8.66602 0.921875C9.47168 1.40527 10.1016 2.06934 10.5557 2.91406C11.0146 3.75879 11.2441 4.67432 11.2441 5.66064C11.2441 6.62256 11.0244 7.52344 10.585 8.36328C10.1455 9.20312 9.52051 9.87939 8.70996 10.3921C7.9043 10.8999 7.01807 11.1538 6.05127 11.1538C5.08936 11.1538 4.20312 10.9023 3.39258 10.3994C2.58691 9.8916 1.96191 9.21777 1.51758 8.37793C1.07324 7.53809 0.851074 6.63232 0.851074 5.66064ZM23.5708 11H16.5835V10.0259L20.2749 5.92432C20.8218 5.3042 21.1978 4.80127 21.4028 4.41553C21.6128 4.0249 21.7178 3.62207 21.7178 3.20703C21.7178 2.65039 21.5493 2.19385 21.2124 1.8374C20.8755 1.48096 20.4263 1.30273 19.8647 1.30273C19.1909 1.30273 18.666 1.49561 18.29 1.88135C17.9189 2.26221 17.7334 2.79443 17.7334 3.47803H16.3784C16.3784 2.49658 16.6934 1.70313 17.3232 1.09766C17.958 0.492187 18.8052 0.189453 19.8647 0.189453C20.856 0.189453 21.6396 0.450684 22.2158 0.973145C22.792 1.49072 23.0801 2.18164 23.0801 3.0459C23.0801 4.0957 22.4111 5.3457 21.0732 6.7959L18.2168 9.89404H23.5708V11ZM31.6934 6.45166C31.6934 8.03857 31.4224 9.21777 30.8804 9.98926C30.3384 10.7607 29.4912 11.1465 28.3389 11.1465C27.2012 11.1465 26.3589 10.7705 25.812 10.0186C25.2651 9.26172 24.9819 8.13379 24.9624 6.63477V4.82568C24.9624 3.2583 25.2334 2.09375 25.7754 1.33203C26.3174 0.570312 27.167 0.189453 28.3242 0.189453C29.4717 0.189453 30.3164 0.558105 30.8584 1.29541C31.4004 2.02783 31.6787 3.16064 31.6934 4.69385V6.45166ZM30.3384 4.59863C30.3384 3.45117 30.1772 2.61621 29.855 2.09375C29.5327 1.56641 29.0225 1.30273 28.3242 1.30273C27.6309 1.30273 27.1255 1.56396 26.8081 2.08643C26.4907 2.60889 26.3271 3.41211 26.3174 4.49609V6.66406C26.3174 7.81641 26.4834 8.66846 26.8154 9.22021C27.1523 9.76709 27.6602 10.0405 28.3389 10.0405C29.0078 10.0405 29.5034 9.78174 29.8257 9.26416C30.1528 8.74658 30.3237 7.93115 30.3384 6.81787V4.59863ZM40.4165 11H33.4292V10.0259L37.1206 5.92432C37.6675 5.3042 38.0435 4.80127 38.2485 4.41553C38.4585 4.0249 38.5635 3.62207 38.5635 3.20703C38.5635 2.65039 38.395 2.19385 38.0581 1.8374C37.7212 1.48096 37.272 1.30273 36.7104 1.30273C36.0366 1.30273 35.5117 1.49561 35.1357 1.88135C34.7646 2.26221 34.5791 2.79443 34.5791 3.47803H33.2241C33.2241 2.49658 33.5391 1.70313 34.1689 1.09766C34.8037 0.492187 35.6509 0.189453 36.7104 0.189453C37.7017 0.189453 38.4854 0.450684 39.0615 0.973145C39.6377 1.49072 39.9258 2.18164 39.9258 3.0459C39.9258 4.0957 39.2568 5.3457 37.9189 6.7959L35.0625 9.89404H40.4165V11ZM48.5391 6.45166C48.5391 8.03857 48.2681 9.21777 47.7261 9.98926C47.1841 10.7607 46.3369 11.1465 45.1846 11.1465C44.0469 11.1465 43.2046 10.7705 42.6577 10.0186C42.1108 9.26172 41.8276 8.13379 41.8081 6.63477V4.82568C41.8081 3.2583 42.0791 2.09375 42.6211 1.33203C43.1631 0.570312 44.0127 0.189453 45.1699 0.189453C46.3174 0.189453 47.1621 0.558105 47.7041 1.29541C48.2461 2.02783 48.5244 3.16064 48.5391 4.69385V6.45166ZM47.1841 4.59863C47.1841 3.45117 47.0229 2.61621 46.7007 2.09375C46.3784 1.56641 45.8682 1.30273 45.1699 1.30273C44.4766 1.30273 43.9712 1.56396 43.6538 2.08643C43.3364 2.60889 43.1729 3.41211 43.1631 4.49609V6.66406C43.1631 7.81641 43.3291 8.66846 43.6611 9.22021C43.998 9.76709 44.5059 10.0405 45.1846 10.0405C45.8535 10.0405 46.3491 9.78174 46.6714 9.26416C46.9985 8.74658 47.1694 7.93115 47.1841 6.81787V4.59863ZM58.2583 6.68604H55.7534V11H54.3398V0.335938H57.8701C59.0713 0.335938 59.9941 0.609375 60.6387 1.15625C61.2881 1.70313 61.6128 2.49902 61.6128 3.54395C61.6128 4.20801 61.4321 4.78662 61.0708 5.27979C60.7144 5.77295 60.2163 6.1416 59.5767 6.38574L62.0815 10.9121V11H60.5728L58.2583 6.68604ZM55.7534 5.53613H57.9141C58.6123 5.53613 59.1665 5.35547 59.5767 4.99414C59.9917 4.63281 60.1992 4.14941 60.1992 3.54395C60.1992 2.88477 60.0015 2.37939 59.606 2.02783C59.2153 1.67627 58.6489 1.49805 57.9067 1.49316H55.7534V5.53613ZM64.645 9.8501H70.7461V11H62.9824V9.94531L68.8271 1.49316H63.0776V0.335938H70.5117V1.36865L64.645 9.8501ZM80.7656 11H79.3521L73.9834 2.78223V11H72.5698V0.335938H73.9834L79.3667 8.59033V0.335938H80.7656V11ZM84.6768 9.8501H89.7305V11H83.2632V0.335938H84.6768V9.8501ZM92.8433 11H91.437V0.335938H92.8433V11ZM101.303 6.29053H96.8276V11H95.4214V0.335938H102.028V1.49316H96.8276V5.14062H101.303V6.29053ZM109.74 6.0708H105.119V9.8501H110.487V11H103.712V0.335938H110.414V1.49316H105.119V4.9209H109.74V6.0708Z" fill="black"/>
</svg>
