<svg width="96" height="11" viewBox="0 0 96 11" fill="none" xmlns="http://www.w3.org/2000/svg">
<path d="M7.06299 6.21045C7.06299 6.85791 6.87891 7.35303 6.51074 7.6958C6.14681 8.03434 5.63053 8.20361 4.96191 8.20361C4.29753 8.20361 3.76432 7.98145 3.3623 7.53711C2.96452 7.08854 2.76562 6.47917 2.76562 5.70898V5.01074C2.76562 4.26595 2.96663 3.67139 3.36865 3.22705C3.7749 2.77848 4.30599 2.5542 4.96191 2.5542C5.639 2.5542 6.15951 2.7277 6.52344 3.07471C6.88737 3.42171 7.06934 3.91048 7.06934 4.54102H6.14258C6.14258 4.12207 6.04102 3.82373 5.83789 3.646C5.639 3.46403 5.34701 3.37305 4.96191 3.37305C4.56413 3.37305 4.25098 3.51904 4.02246 3.81104C3.79395 4.10303 3.67969 4.50928 3.67969 5.02979V5.74707C3.67969 6.25488 3.79395 6.65479 4.02246 6.94678C4.25098 7.23877 4.56413 7.38477 4.96191 7.38477C5.35124 7.38477 5.64323 7.2959 5.83789 7.11816C6.03678 6.94043 6.13623 6.63786 6.13623 6.21045H7.06299ZM1.26758 5.37256C1.26758 6.10042 1.43685 6.77539 1.77539 7.39746C2.11393 8.0153 2.57308 8.49984 3.15283 8.85107C3.73682 9.20231 4.36735 9.37793 5.04443 9.37793C5.72152 9.37793 6.34993 9.20231 6.92969 8.85107C7.50944 8.49984 7.96859 8.0153 8.30713 7.39746C8.64567 6.77539 8.81494 6.10042 8.81494 5.37256C8.81494 4.65316 8.64779 3.98665 8.31348 3.37305C7.97917 2.75944 7.52002 2.27702 6.93604 1.92578C6.35628 1.57031 5.72575 1.39258 5.04443 1.39258C4.36735 1.39258 3.73682 1.5682 3.15283 1.91943C2.56885 2.26644 2.10758 2.74886 1.76904 3.3667C1.43473 3.98454 1.26758 4.65316 1.26758 5.37256ZM0.537598 5.37256C0.537598 4.51774 0.734375 3.72428 1.12793 2.99219C1.52572 2.26009 2.07373 1.68457 2.77197 1.26562C3.47445 0.842448 4.23193 0.630859 5.04443 0.630859C5.85693 0.630859 6.6123 0.842448 7.31055 1.26562C8.00879 1.68457 8.55469 2.26009 8.94824 2.99219C9.34603 3.72428 9.54492 4.51774 9.54492 5.37256C9.54492 6.20622 9.35449 6.98698 8.97363 7.71484C8.59277 8.44271 8.05111 9.02881 7.34863 9.47314C6.65039 9.91325 5.88232 10.1333 5.04443 10.1333C4.21077 10.1333 3.44271 9.91536 2.74023 9.47949C2.04199 9.03939 1.50033 8.4554 1.11523 7.72754C0.730143 6.99967 0.537598 6.21468 0.537598 5.37256ZM20.228 10H14.1724V9.15576L17.3716 5.60107C17.8455 5.06364 18.1714 4.62777 18.3491 4.29346C18.5311 3.95492 18.6221 3.60579 18.6221 3.24609C18.6221 2.76367 18.4761 2.368 18.1841 2.05908C17.8921 1.75016 17.5028 1.5957 17.0161 1.5957C16.4321 1.5957 15.9772 1.76286 15.6514 2.09717C15.3298 2.42725 15.1689 2.88851 15.1689 3.48096H13.9946C13.9946 2.63037 14.2676 1.94271 14.8135 1.41797C15.3636 0.893229 16.0978 0.630859 17.0161 0.630859C17.8752 0.630859 18.5544 0.857259 19.0537 1.31006C19.5531 1.75863 19.8027 2.35742 19.8027 3.10645C19.8027 4.01628 19.223 5.09961 18.0635 6.35645L15.5879 9.0415H20.228V10ZM27.2676 6.05811C27.2676 7.43343 27.0327 8.4554 26.563 9.12402C26.0933 9.79264 25.359 10.127 24.3604 10.127C23.3743 10.127 22.6444 9.80111 22.1704 9.14941C21.6965 8.49349 21.451 7.51595 21.4341 6.2168V4.64893C21.4341 3.29053 21.6689 2.28125 22.1387 1.62109C22.6084 0.960938 23.3447 0.630859 24.3477 0.630859C25.3421 0.630859 26.0742 0.950358 26.5439 1.58936C27.0137 2.22412 27.2549 3.20589 27.2676 4.53467V6.05811ZM26.0933 4.45215C26.0933 3.45768 25.9536 2.73405 25.6743 2.28125C25.395 1.82422 24.9528 1.5957 24.3477 1.5957C23.7467 1.5957 23.3088 1.8221 23.0337 2.2749C22.7586 2.7277 22.6169 3.42383 22.6084 4.36328V6.24219C22.6084 7.24089 22.7523 7.97933 23.04 8.45752C23.332 8.93148 23.7721 9.16846 24.3604 9.16846C24.9401 9.16846 25.3696 8.94417 25.6489 8.49561C25.9325 8.04704 26.0806 7.34033 26.0933 6.37549V4.45215ZM34.8276 10H28.772V9.15576L31.9712 5.60107C32.4451 5.06364 32.771 4.62777 32.9487 4.29346C33.1307 3.95492 33.2217 3.60579 33.2217 3.24609C33.2217 2.76367 33.0757 2.368 32.7837 2.05908C32.4917 1.75016 32.1024 1.5957 31.6157 1.5957C31.0317 1.5957 30.5768 1.76286 30.251 2.09717C29.9294 2.42725 29.7686 2.88851 29.7686 3.48096H28.5942C28.5942 2.63037 28.8672 1.94271 29.4131 1.41797C29.9632 0.893229 30.6974 0.630859 31.6157 0.630859C32.4748 0.630859 33.154 0.857259 33.6533 1.31006C34.1527 1.75863 34.4023 2.35742 34.4023 3.10645C34.4023 4.01628 33.8226 5.09961 32.6631 6.35645L30.1875 9.0415H34.8276V10ZM41.8672 6.05811C41.8672 7.43343 41.6323 8.4554 41.1626 9.12402C40.6929 9.79264 39.9587 10.127 38.96 10.127C37.974 10.127 37.244 9.80111 36.77 9.14941C36.2961 8.49349 36.0506 7.51595 36.0337 6.2168V4.64893C36.0337 3.29053 36.2686 2.28125 36.7383 1.62109C37.208 0.960938 37.9443 0.630859 38.9473 0.630859C39.9417 0.630859 40.6738 0.950358 41.1436 1.58936C41.6133 2.22412 41.8545 3.20589 41.8672 4.53467V6.05811ZM40.6929 4.45215C40.6929 3.45768 40.5532 2.73405 40.2739 2.28125C39.9946 1.82422 39.5524 1.5957 38.9473 1.5957C38.3464 1.5957 37.9084 1.8221 37.6333 2.2749C37.3582 2.7277 37.2165 3.42383 37.208 4.36328V6.24219C37.208 7.24089 37.3519 7.97933 37.6396 8.45752C37.9316 8.93148 38.3717 9.16846 38.96 9.16846C39.5397 9.16846 39.9692 8.94417 40.2485 8.49561C40.5321 8.04704 40.6802 7.34033 40.6929 6.37549V4.45215ZM50.2905 6.26123H48.1196V10H46.8945V0.757812H49.9541C50.9951 0.757812 51.7949 0.994792 52.3535 1.46875C52.9163 1.94271 53.1978 2.63249 53.1978 3.53809C53.1978 4.11361 53.0412 4.61507 52.728 5.04248C52.4191 5.46989 51.9875 5.78939 51.4331 6.00098L53.604 9.92383V10H52.2964L50.2905 6.26123ZM48.1196 5.26465H49.9922C50.5973 5.26465 51.0776 5.10807 51.4331 4.79492C51.7928 4.48177 51.9727 4.06283 51.9727 3.53809C51.9727 2.9668 51.8013 2.52881 51.4585 2.22412C51.12 1.91943 50.6291 1.76497 49.9858 1.76074H48.1196V5.26465ZM55.8257 9.00342H61.1133V10H54.3848V9.08594L59.4502 1.76074H54.4673V0.757812H60.9102V1.65283L55.8257 9.00342ZM69.7969 10H68.5718L63.9189 2.87793V10H62.6938V0.757812H63.9189L68.5845 7.91162V0.757812H69.7969V10ZM73.1865 9.00342H77.5664V10H71.9614V0.757812H73.1865V9.00342ZM80.2642 10H79.0454V0.757812H80.2642V10ZM87.5957 5.91846H83.7173V10H82.4985V0.757812H88.2241V1.76074H83.7173V4.92188H87.5957V5.91846ZM94.9082 5.72803H90.9028V9.00342H95.5557V10H89.6841V0.757812H95.4922V1.76074H90.9028V4.73145H94.9082V5.72803Z" fill="white"/>
</svg>
