<svg width="506" height="71" viewBox="0 0 506 71" fill="none" xmlns="http://www.w3.org/2000/svg">
<path d="M5.71875 16.9844V25H1.03125V2.25H9.90625C11.6146 2.25 13.1146 2.5625 14.4062 3.1875C15.7083 3.8125 16.7083 4.70312 17.4062 5.85938C18.1042 7.00521 18.4531 8.3125 18.4531 9.78125C18.4531 12.0104 17.6875 13.7708 16.1562 15.0625C14.6354 16.3438 12.526 16.9844 9.82812 16.9844H5.71875ZM5.71875 13.1875H9.90625C11.1458 13.1875 12.0885 12.8958 12.7344 12.3125C13.3906 11.7292 13.7188 10.8958 13.7188 9.8125C13.7188 8.69792 13.3906 7.79688 12.7344 7.10938C12.0781 6.42188 11.1719 6.06771 10.0156 6.04688H5.71875V13.1875ZM35.4844 8.09375V25H30.9844V19.1562H28.125L24.875 25H20.2969L23.9844 18.3906C22.974 17.9219 22.1927 17.2865 21.6406 16.4844C21.099 15.6823 20.8281 14.7708 20.8281 13.75C20.8281 12.1146 21.4583 10.776 22.7188 9.73438C23.9896 8.68229 25.6875 8.13542 27.8125 8.09375H35.4844ZM27.8906 16H30.9844V11.7188H28.0469C27.2448 11.7188 26.5938 11.9323 26.0938 12.3594C25.5938 12.776 25.3438 13.2865 25.3438 13.8906C25.3438 14.4948 25.5833 14.9948 26.0625 15.3906C26.5417 15.7865 27.151 15.9896 27.8906 16ZM48.1719 13.0781C48.1719 12.4844 47.974 12.026 47.5781 11.7031C47.1927 11.3698 46.6406 11.2031 45.9219 11.2031C45.1823 11.2031 44.5781 11.3594 44.1094 11.6719C43.651 11.974 43.4219 12.4062 43.4219 12.9688H38.9062C38.9062 11.4375 39.5417 10.1927 40.8125 9.23438C42.0833 8.27604 43.7083 7.79688 45.6875 7.79688C47.8646 7.79688 49.5729 8.22396 50.8125 9.07812C52.0625 9.93229 52.6875 11.1458 52.6875 12.7188C52.6875 13.4688 52.4583 14.1615 52 14.7969C51.5521 15.4219 50.9167 15.9219 50.0938 16.2969C52.0208 16.974 52.9844 18.2812 52.9844 20.2188C52.9844 21.7708 52.3177 23.0104 50.9844 23.9375C49.6615 24.8542 47.8958 25.3125 45.6875 25.3125C43.6354 25.3125 41.9479 24.8333 40.625 23.875C39.3021 22.9167 38.6406 21.625 38.6406 20H43.1562C43.1562 20.5729 43.4115 21.0365 43.9219 21.3906C44.4323 21.7448 45.099 21.9219 45.9219 21.9219C46.724 21.9219 47.349 21.7344 47.7969 21.3594C48.2448 20.9844 48.4688 20.4948 48.4688 19.8906C48.4688 19.151 48.2552 18.625 47.8281 18.3125C47.401 17.9896 46.7604 17.8281 45.9062 17.8281H43.4531V14.8906H46.0625C47.4688 14.849 48.1719 14.2448 48.1719 13.0781ZM65.5312 25C65.3229 24.5938 65.1719 24.0885 65.0781 23.4844C63.9844 24.7031 62.5625 25.3125 60.8125 25.3125C59.1562 25.3125 57.7812 24.8333 56.6875 23.875C55.6042 22.9167 55.0625 21.7083 55.0625 20.25C55.0625 18.4583 55.724 17.0833 57.0469 16.125C58.3802 15.1667 60.3021 14.6823 62.8125 14.6719H64.8906V13.7031C64.8906 12.9219 64.6875 12.2969 64.2812 11.8281C63.8854 11.3594 63.2552 11.125 62.3906 11.125C61.6302 11.125 61.0312 11.3073 60.5938 11.6719C60.1667 12.0365 59.9531 12.5365 59.9531 13.1719H55.4375C55.4375 12.1927 55.7396 11.2865 56.3438 10.4531C56.9479 9.61979 57.8021 8.96875 58.9062 8.5C60.0104 8.02083 61.25 7.78125 62.625 7.78125C64.7083 7.78125 66.3594 8.30729 67.5781 9.35938C68.8073 10.401 69.4219 11.8698 69.4219 13.7656V21.0938C69.4323 22.6979 69.6562 23.9115 70.0938 24.7344V25H65.5312ZM61.7969 21.8594C62.4635 21.8594 63.0781 21.7135 63.6406 21.4219C64.2031 21.1198 64.6198 20.7188 64.8906 20.2188V17.3125H63.2031C60.9427 17.3125 59.7396 18.0938 59.5938 19.6562L59.5781 19.9219C59.5781 20.4844 59.776 20.9479 60.1719 21.3125C60.5677 21.6771 61.1094 21.8594 61.7969 21.8594ZM87.5469 25H83.0156V18.5H77.4062V25H72.8906V8.09375H77.4062V14.875H83.0156V8.09375H87.5469V25ZM91.0469 8.09375H95.5625V21.3594H101.219V8.09375H105.75V21.3906H108.281L107.969 30.0156H103.766V25H91.0469V8.09375ZM115.375 13.0469H118.609C120.068 13.0469 121.349 13.2917 122.453 13.7812C123.557 14.2708 124.401 14.974 124.984 15.8906C125.578 16.7969 125.875 17.8542 125.875 19.0625C125.875 20.8438 125.214 22.2812 123.891 23.375C122.578 24.4583 120.786 25 118.516 25H110.844V8.09375H115.375V13.0469ZM133.062 25H128.547V8.09375H133.062V25ZM115.375 16.6719V21.3906H118.578C119.474 21.3906 120.161 21.1823 120.641 20.7656C121.12 20.349 121.359 19.7812 121.359 19.0625C121.359 18.3333 121.125 17.7552 120.656 17.3281C120.188 16.8906 119.495 16.6719 118.578 16.6719H115.375ZM144.312 16.3906C144.312 14.7135 144.635 13.2188 145.281 11.9062C145.927 10.5938 146.854 9.57812 148.062 8.85938C149.281 8.14062 150.693 7.78125 152.297 7.78125C154.578 7.78125 156.438 8.47917 157.875 9.875C159.323 11.2708 160.13 13.1667 160.297 15.5625L160.328 16.7188C160.328 19.3125 159.604 21.3958 158.156 22.9688C156.708 24.5312 154.766 25.3125 152.328 25.3125C149.891 25.3125 147.943 24.5312 146.484 22.9688C145.036 21.4062 144.312 19.2812 144.312 16.5938V16.3906ZM148.828 16.7188C148.828 18.3229 149.13 19.5521 149.734 20.4062C150.339 21.25 151.203 21.6719 152.328 21.6719C153.422 21.6719 154.276 21.2552 154.891 20.4219C155.505 19.5781 155.812 18.2344 155.812 16.3906C155.812 14.8177 155.505 13.599 154.891 12.7344C154.276 11.8698 153.411 11.4375 152.297 11.4375C151.193 11.4375 150.339 11.8698 149.734 12.7344C149.13 13.5885 148.828 14.9167 148.828 16.7188ZM171.5 9.03125C173.667 9.03125 175.396 9.75 176.688 11.1875C177.979 12.625 178.625 14.5781 178.625 17.0469V17.2656C178.625 19.7031 177.906 21.6562 176.469 23.125C175.031 24.5938 173.099 25.3281 170.672 25.3281C168.234 25.3281 166.292 24.5365 164.844 22.9531C163.406 21.3594 162.688 19.1979 162.688 16.4688V15.7188C162.708 11.9167 163.349 8.94271 164.609 6.79688C165.88 4.64062 167.786 3.28125 170.328 2.71875C171.661 2.42708 172.521 2.14062 172.906 1.85938C173.292 1.56771 173.484 1.16667 173.484 0.65625H177.141C177.141 2.29167 176.698 3.52083 175.812 4.34375C174.938 5.16667 173.375 5.80208 171.125 6.25C169.792 6.52083 168.74 7.04688 167.969 7.82812C167.198 8.60938 166.677 9.70833 166.406 11.125C167.844 9.72917 169.542 9.03125 171.5 9.03125ZM170.641 12.6875C169.568 12.6875 168.724 13.0469 168.109 13.7656C167.505 14.4844 167.203 15.651 167.203 17.2656C167.203 18.7031 167.5 19.8021 168.094 20.5625C168.688 21.3125 169.547 21.6875 170.672 21.6875C171.766 21.6875 172.609 21.3177 173.203 20.5781C173.797 19.8385 174.099 18.75 174.109 17.3125V16.9375C174.109 15.5521 173.802 14.5 173.188 13.7812C172.583 13.0521 171.734 12.6875 170.641 12.6875ZM188.359 21.6719C189.193 21.6719 189.87 21.4427 190.391 20.9844C190.911 20.526 191.182 19.9167 191.203 19.1562H195.438C195.427 20.3021 195.115 21.3542 194.5 22.3125C193.885 23.2604 193.042 24 191.969 24.5312C190.906 25.0521 189.729 25.3125 188.438 25.3125C186.021 25.3125 184.115 24.5469 182.719 23.0156C181.323 21.474 180.625 19.349 180.625 16.6406V16.3438C180.625 13.7396 181.318 11.6615 182.703 10.1094C184.089 8.55729 185.99 7.78125 188.406 7.78125C190.521 7.78125 192.214 8.38542 193.484 9.59375C194.766 10.7917 195.417 12.3906 195.438 14.3906H191.203C191.182 13.5156 190.911 12.8073 190.391 12.2656C189.87 11.7135 189.182 11.4375 188.328 11.4375C187.276 11.4375 186.479 11.8229 185.938 12.5938C185.406 13.3542 185.141 14.5938 185.141 16.3125V16.7812C185.141 18.5208 185.406 19.7708 185.938 20.5312C186.469 21.2917 187.276 21.6719 188.359 21.6719ZM204.328 18.6094L207.453 8.09375H212.297L205.5 27.625L205.125 28.5156C204.115 30.724 202.448 31.8281 200.125 31.8281C199.469 31.8281 198.802 31.7292 198.125 31.5312V28.1094L198.812 28.125C199.667 28.125 200.302 27.9948 200.719 27.7344C201.146 27.474 201.479 27.0417 201.719 26.4375L202.25 25.0469L196.328 8.09375H201.188L204.328 18.6094ZM213.438 21.3594C214.458 20.276 215.151 19.2031 215.516 18.1406C215.88 17.0781 216.083 15.5729 216.125 13.625L216.25 8.09375H228.688V21.3594H231.125V30.0781H226.609V25H216.594V30.0781H211.984V21.3594H213.438ZM218.766 21.3594H224.188V11.8281H220.672L220.641 13.8594C220.547 16.9635 219.922 19.4635 218.766 21.3594ZM243.328 8.09375H247.844V25H243.328V14.5625L237.672 25H233.141V8.09375H237.672V18.5156L243.328 8.09375ZM266 8.09375V25H261.484V11.75H257.5L257.219 16.9688C257.042 19.75 256.495 21.776 255.578 23.0469C254.661 24.3177 253.297 24.9688 251.484 25H249.953L249.906 21.3281L250.469 21.2812C251.281 21.2188 251.875 20.7396 252.25 19.8438C252.625 18.9479 252.859 17.4219 252.953 15.2656L253.266 8.09375H266ZM279.672 8.09375H284.188V25H279.672V14.5625L274.016 25H269.484V8.09375H274.016V18.5156L279.672 8.09375ZM295.906 25V8.09375H302.969C305.271 8.09375 307.036 8.5 308.266 9.3125C309.495 10.125 310.109 11.2917 310.109 12.8125C310.109 13.5938 309.849 14.2969 309.328 14.9219C308.818 15.5365 308.068 16.0104 307.078 16.3438C308.286 16.5729 309.234 17.026 309.922 17.7031C310.62 18.3698 310.969 19.1927 310.969 20.1719C310.969 21.7448 310.375 22.9427 309.188 23.7656C308.01 24.5885 306.297 25 304.047 25H295.906ZM300.422 17.9844V21.3906H304.062C305.656 21.3906 306.453 20.8333 306.453 19.7188C306.453 18.5833 305.693 18.0052 304.172 17.9844H300.422ZM300.422 14.9531H303.219C304.802 14.9323 305.594 14.4219 305.594 13.4219C305.594 12.8073 305.375 12.3698 304.938 12.1094C304.51 11.849 303.854 11.7188 302.969 11.7188H300.422V14.9531ZM314.031 25V8.09375H321.094C323.396 8.09375 325.161 8.5 326.391 9.3125C327.62 10.125 328.234 11.2917 328.234 12.8125C328.234 13.5938 327.974 14.2969 327.453 14.9219C326.943 15.5365 326.193 16.0104 325.203 16.3438C326.411 16.5729 327.359 17.026 328.047 17.7031C328.745 18.3698 329.094 19.1927 329.094 20.1719C329.094 21.7448 328.5 22.9427 327.312 23.7656C326.135 24.5885 324.422 25 322.172 25H314.031ZM318.547 17.9844V21.3906H322.188C323.781 21.3906 324.578 20.8333 324.578 19.7188C324.578 18.5833 323.818 18.0052 322.297 17.9844H318.547ZM318.547 14.9531H321.344C322.927 14.9323 323.719 14.4219 323.719 13.4219C323.719 12.8073 323.5 12.3698 323.062 12.1094C322.635 11.849 321.979 11.7188 321.094 11.7188H318.547V14.9531ZM339.641 25.3125C337.161 25.3125 335.141 24.5521 333.578 23.0312C332.026 21.5104 331.25 19.4844 331.25 16.9531V16.5156C331.25 14.8177 331.578 13.3021 332.234 11.9688C332.891 10.625 333.818 9.59375 335.016 8.875C336.224 8.14583 337.599 7.78125 339.141 7.78125C341.453 7.78125 343.271 8.51042 344.594 9.96875C345.927 11.4271 346.594 13.4948 346.594 16.1719V18.0156H335.828C335.974 19.1198 336.411 20.0052 337.141 20.6719C337.88 21.3385 338.812 21.6719 339.938 21.6719C341.677 21.6719 343.036 21.0417 344.016 19.7812L346.234 22.2656C345.557 23.224 344.641 23.974 343.484 24.5156C342.328 25.0469 341.047 25.3125 339.641 25.3125ZM339.125 11.4375C338.229 11.4375 337.5 11.7396 336.938 12.3438C336.385 12.9479 336.031 13.8125 335.875 14.9375H342.156V14.5781C342.135 13.5781 341.865 12.8073 341.344 12.2656C340.823 11.7135 340.083 11.4375 339.125 11.4375ZM349.406 21.3594C350.427 20.276 351.12 19.2031 351.484 18.1406C351.849 17.0781 352.052 15.5729 352.094 13.625L352.219 8.09375H364.656V21.3594H367.094V30.0781H362.578V25H352.562V30.0781H347.953V21.3594H349.406ZM354.734 21.3594H360.156V11.8281H356.641L356.609 13.8594C356.516 16.9635 355.891 19.4635 354.734 21.3594ZM377.172 25.3125C374.693 25.3125 372.672 24.5521 371.109 23.0312C369.557 21.5104 368.781 19.4844 368.781 16.9531V16.5156C368.781 14.8177 369.109 13.3021 369.766 11.9688C370.422 10.625 371.349 9.59375 372.547 8.875C373.755 8.14583 375.13 7.78125 376.672 7.78125C378.984 7.78125 380.802 8.51042 382.125 9.96875C383.458 11.4271 384.125 13.4948 384.125 16.1719V18.0156H373.359C373.505 19.1198 373.943 20.0052 374.672 20.6719C375.411 21.3385 376.344 21.6719 377.469 21.6719C379.208 21.6719 380.568 21.0417 381.547 19.7812L383.766 22.2656C383.089 23.224 382.172 23.974 381.016 24.5156C379.859 25.0469 378.578 25.3125 377.172 25.3125ZM376.656 11.4375C375.76 11.4375 375.031 11.7396 374.469 12.3438C373.917 12.9479 373.562 13.8125 373.406 14.9375H379.688V14.5781C379.667 13.5781 379.396 12.8073 378.875 12.2656C378.354 11.7135 377.615 11.4375 376.656 11.4375ZM401.359 25H396.828V18.5H391.219V25H386.703V8.09375H391.219V14.875H396.828V8.09375H401.359V25ZM415.047 8.09375H419.562V25H415.047V14.5625L409.391 25H404.859V8.09375H409.391V18.5156L415.047 8.09375ZM430.797 25.3125C428.318 25.3125 426.297 24.5521 424.734 23.0312C423.182 21.5104 422.406 19.4844 422.406 16.9531V16.5156C422.406 14.8177 422.734 13.3021 423.391 11.9688C424.047 10.625 424.974 9.59375 426.172 8.875C427.38 8.14583 428.755 7.78125 430.297 7.78125C432.609 7.78125 434.427 8.51042 435.75 9.96875C437.083 11.4271 437.75 13.4948 437.75 16.1719V18.0156H426.984C427.13 19.1198 427.568 20.0052 428.297 20.6719C429.036 21.3385 429.969 21.6719 431.094 21.6719C432.833 21.6719 434.193 21.0417 435.172 19.7812L437.391 22.2656C436.714 23.224 435.797 23.974 434.641 24.5156C433.484 25.0469 432.203 25.3125 430.797 25.3125ZM430.281 11.4375C429.385 11.4375 428.656 11.7396 428.094 12.3438C427.542 12.9479 427.188 13.8125 427.031 14.9375H433.312V14.5781C433.292 13.5781 433.021 12.8073 432.5 12.2656C431.979 11.7135 431.24 11.4375 430.281 11.4375ZM3.73438 56.8125L7.48438 63.0469H4.57812L0.203125 56.9531V56.6562L4.57812 50.5625H7.48438L3.73438 56.8125ZM9.75 56.8125L13.5 63.0469H10.5938L6.21875 56.9531V56.6562L10.5938 50.5625H13.5L9.75 56.8125ZM16.9688 61.3594C17.9896 60.276 18.6823 59.2031 19.0469 58.1406C19.4115 57.0781 19.6146 55.5729 19.6562 53.625L19.7812 48.0938H32.2188V61.3594H34.6562V70.0781H30.1406V65H20.125V70.0781H15.5156V61.3594H16.9688ZM22.2969 61.3594H27.7188V51.8281H24.2031L24.1719 53.8594C24.0781 56.9635 23.4531 59.4635 22.2969 61.3594ZM46.8594 48.0938H51.375V65H46.8594V54.5625L41.2031 65H36.6719V48.0938H41.2031V58.5156L46.8594 48.0938ZM61.8594 61.6719C62.6927 61.6719 63.3698 61.4427 63.8906 60.9844C64.4115 60.526 64.6823 59.9167 64.7031 59.1562H68.9375C68.9271 60.3021 68.6146 61.3542 68 62.3125C67.3854 63.2604 66.5417 64 65.4688 64.5312C64.4062 65.0521 63.2292 65.3125 61.9375 65.3125C59.5208 65.3125 57.6146 64.5469 56.2188 63.0156C54.8229 61.474 54.125 59.349 54.125 56.6406V56.3438C54.125 53.7396 54.8177 51.6615 56.2031 50.1094C57.5885 48.5573 59.4896 47.7812 61.9062 47.7812C64.0208 47.7812 65.7135 48.3854 66.9844 49.5938C68.2656 50.7917 68.9167 52.3906 68.9375 54.3906H64.7031C64.6823 53.5156 64.4115 52.8073 63.8906 52.2656C63.3698 51.7135 62.6823 51.4375 61.8281 51.4375C60.776 51.4375 59.9792 51.8229 59.4375 52.5938C58.9062 53.3542 58.6406 54.5938 58.6406 56.3125V56.7812C58.6406 58.5208 58.9062 59.7708 59.4375 60.5312C59.9688 61.2917 60.776 61.6719 61.8594 61.6719ZM85.5469 51.7188H80.125V65H75.5938V51.7188H70.2656V48.0938H85.5469V51.7188ZM97.375 65C97.1667 64.5938 97.0156 64.0885 96.9219 63.4844C95.8281 64.7031 94.4062 65.3125 92.6562 65.3125C91 65.3125 89.625 64.8333 88.5312 63.875C87.4479 62.9167 86.9062 61.7083 86.9062 60.25C86.9062 58.4583 87.5677 57.0833 88.8906 56.125C90.224 55.1667 92.1458 54.6823 94.6562 54.6719H96.7344V53.7031C96.7344 52.9219 96.5312 52.2969 96.125 51.8281C95.7292 51.3594 95.099 51.125 94.2344 51.125C93.474 51.125 92.875 51.3073 92.4375 51.6719C92.0104 52.0365 91.7969 52.5365 91.7969 53.1719H87.2812C87.2812 52.1927 87.5833 51.2865 88.1875 50.4531C88.7917 49.6198 89.6458 48.9688 90.75 48.5C91.8542 48.0208 93.0938 47.7812 94.4688 47.7812C96.5521 47.7812 98.2031 48.3073 99.4219 49.3594C100.651 50.401 101.266 51.8698 101.266 53.7656V61.0938C101.276 62.6979 101.5 63.9115 101.938 64.7344V65H97.375ZM93.6406 61.8594C94.3073 61.8594 94.9219 61.7135 95.4844 61.4219C96.0469 61.1198 96.4635 60.7188 96.7344 60.2188V57.3125H95.0469C92.7865 57.3125 91.5833 58.0938 91.4375 59.6562L91.4219 59.9219C91.4219 60.4844 91.6198 60.9479 92.0156 61.3125C92.4115 61.6771 92.9531 61.8594 93.6406 61.8594ZM119.391 65H114.859V58.5H109.25V65H104.734V48.0938H109.25V54.875H114.859V48.0938H119.391V65ZM122.891 48.0938H127.406V61.3594H133.062V48.0938H137.594V61.3906H140.125L139.812 70.0156H135.609V65H122.891V48.0938ZM152.578 48.0938H157.094V65H152.578V54.5625L146.922 65H142.391V48.0938H146.922V58.5156L152.578 48.0938ZM159.844 56.3906C159.844 54.7135 160.167 53.2188 160.812 51.9062C161.458 50.5938 162.385 49.5781 163.594 48.8594C164.812 48.1406 166.224 47.7812 167.828 47.7812C170.109 47.7812 171.969 48.4792 173.406 49.875C174.854 51.2708 175.661 53.1667 175.828 55.5625L175.859 56.7188C175.859 59.3125 175.135 61.3958 173.688 62.9688C172.24 64.5312 170.297 65.3125 167.859 65.3125C165.422 65.3125 163.474 64.5312 162.016 62.9688C160.568 61.4062 159.844 59.2812 159.844 56.5938V56.3906ZM164.359 56.7188C164.359 58.3229 164.661 59.5521 165.266 60.4062C165.87 61.25 166.734 61.6719 167.859 61.6719C168.953 61.6719 169.807 61.2552 170.422 60.4219C171.036 59.5781 171.344 58.2344 171.344 56.3906C171.344 54.8177 171.036 53.599 170.422 52.7344C169.807 51.8698 168.943 51.4375 167.828 51.4375C166.724 51.4375 165.87 51.8698 165.266 52.7344C164.661 53.5885 164.359 54.9167 164.359 56.7188ZM193.297 65H188.766V58.5H183.156V65H178.641V48.0938H183.156V54.875H188.766V48.0938H193.297V65ZM203.422 58.7656H201.609V65H197.094V48.0938H201.609V54.4531H203.219L206.906 48.0938H212.609L207.078 56.1406L213.125 65H207.109L203.422 58.7656ZM225.016 48.0938H229.531V65H225.016V54.5625L219.359 65H214.828V48.0938H219.359V58.5156L225.016 48.0938ZM235.5 50.5781L239.875 56.6719V56.9688L235.5 63.0625H232.578L236.328 56.8281L232.578 50.5781H235.5ZM241.641 50.5781L246.016 56.6719V56.9688L241.641 63.0625H238.719L242.469 56.8281L238.719 50.5781H241.641ZM257.188 61.3594C258.208 60.276 258.901 59.2031 259.266 58.1406C259.63 57.0781 259.833 55.5729 259.875 53.625L260 48.0938H272.438V61.3594H274.875V70.0781H270.359V65H260.344V70.0781H255.734V61.3594H257.188ZM262.516 61.3594H267.938V51.8281H264.422L264.391 53.8594C264.297 56.9635 263.672 59.4635 262.516 61.3594ZM291.875 48.0938V65H287.359V51.75H283.375L283.094 56.9688C282.917 59.75 282.37 61.776 281.453 63.0469C280.536 64.3177 279.172 64.9688 277.359 65H275.828L275.781 61.3281L276.344 61.2812C277.156 61.2188 277.75 60.7396 278.125 59.8438C278.5 58.9479 278.734 57.4219 278.828 55.2656L279.141 48.0938H291.875ZM309.453 48.0938V65H304.953V59.1562H302.094L298.844 65H294.266L297.953 58.3906C296.943 57.9219 296.161 57.2865 295.609 56.4844C295.068 55.6823 294.797 54.7708 294.797 53.75C294.797 52.1146 295.427 50.776 296.688 49.7344C297.958 48.6823 299.656 48.1354 301.781 48.0938H309.453ZM301.859 56H304.953V51.7188H302.016C301.214 51.7188 300.562 51.9323 300.062 52.3594C299.562 52.776 299.312 53.2865 299.312 53.8906C299.312 54.4948 299.552 54.9948 300.031 55.3906C300.51 55.7865 301.12 55.9896 301.859 56ZM325.75 48.0938V61.3594H330.391V48.0938H334.922V61.3594H339.562V48.0938H344.078V65H321.234V48.0938H325.75ZM354.328 58.7656H352.516V65H348V48.0938H352.516V54.4531H354.125L357.812 48.0938H363.516L357.984 56.1406L364.031 65H358.016L354.328 58.7656ZM364.125 56.3906C364.125 54.7135 364.448 53.2188 365.094 51.9062C365.74 50.5938 366.667 49.5781 367.875 48.8594C369.094 48.1406 370.505 47.7812 372.109 47.7812C374.391 47.7812 376.25 48.4792 377.688 49.875C379.135 51.2708 379.943 53.1667 380.109 55.5625L380.141 56.7188C380.141 59.3125 379.417 61.3958 377.969 62.9688C376.521 64.5312 374.578 65.3125 372.141 65.3125C369.703 65.3125 367.755 64.5312 366.297 62.9688C364.849 61.4062 364.125 59.2812 364.125 56.5938V56.3906ZM368.641 56.7188C368.641 58.3229 368.943 59.5521 369.547 60.4062C370.151 61.25 371.016 61.6719 372.141 61.6719C373.234 61.6719 374.089 61.2552 374.703 60.4219C375.318 59.5781 375.625 58.2344 375.625 56.3906C375.625 54.8177 375.318 53.599 374.703 52.7344C374.089 51.8698 373.224 51.4375 372.109 51.4375C371.005 51.4375 370.151 51.8698 369.547 52.7344C368.943 53.5885 368.641 54.9167 368.641 56.7188ZM397.375 48.0938V65H392.859V51.75H388.875L388.594 56.9688C388.417 59.75 387.87 61.776 386.953 63.0469C386.036 64.3177 384.672 64.9688 382.859 65H381.328L381.281 61.3281L381.844 61.2812C382.656 61.2188 383.25 60.7396 383.625 59.8438C384 58.9479 384.234 57.4219 384.328 55.2656L384.641 48.0938H397.375ZM405.688 53.0469H408.922C410.38 53.0469 411.661 53.2917 412.766 53.7812C413.87 54.2708 414.714 54.974 415.297 55.8906C415.891 56.7969 416.188 57.8542 416.188 59.0625C416.188 60.8438 415.526 62.2812 414.203 63.375C412.891 64.4583 411.099 65 408.828 65H401.156V48.0938H405.688V53.0469ZM405.688 56.6719V61.3906H408.891C409.786 61.3906 410.474 61.1823 410.953 60.7656C411.432 60.349 411.672 59.7812 411.672 59.0625C411.672 58.3333 411.438 57.7552 410.969 57.3281C410.5 56.8906 409.807 56.6719 408.891 56.6719H405.688ZM433.391 65H428.859V58.5H423.25V65H418.734V48.0938H423.25V54.875H428.859V48.0938H433.391V65ZM447.078 48.0938H451.594V65H447.078V54.5625L441.422 65H436.891V48.0938H441.422V58.5156L447.078 48.0938ZM461.672 58.7656H459.859V65H455.344V48.0938H459.859V54.4531H461.469L465.156 48.0938H470.859L465.328 56.1406L471.375 65H465.359L461.672 58.7656ZM471.469 56.3906C471.469 54.7135 471.792 53.2188 472.438 51.9062C473.083 50.5938 474.01 49.5781 475.219 48.8594C476.438 48.1406 477.849 47.7812 479.453 47.7812C481.734 47.7812 483.594 48.4792 485.031 49.875C486.479 51.2708 487.286 53.1667 487.453 55.5625L487.484 56.7188C487.484 59.3125 486.76 61.3958 485.312 62.9688C483.865 64.5312 481.922 65.3125 479.484 65.3125C477.047 65.3125 475.099 64.5312 473.641 62.9688C472.193 61.4062 471.469 59.2812 471.469 56.5938V56.3906ZM475.984 56.7188C475.984 58.3229 476.286 59.5521 476.891 60.4062C477.495 61.25 478.359 61.6719 479.484 61.6719C480.578 61.6719 481.432 61.2552 482.047 60.4219C482.661 59.5781 482.969 58.2344 482.969 56.3906C482.969 54.8177 482.661 53.599 482.047 52.7344C481.432 51.8698 480.568 51.4375 479.453 51.4375C478.349 51.4375 477.495 51.8698 476.891 52.7344C476.286 53.5885 475.984 54.9167 475.984 56.7188ZM490.562 65V48.0938H497.625C499.927 48.0938 501.693 48.5 502.922 49.3125C504.151 50.125 504.766 51.2917 504.766 52.8125C504.766 53.5938 504.505 54.2969 503.984 54.9219C503.474 55.5365 502.724 56.0104 501.734 56.3438C502.943 56.5729 503.891 57.026 504.578 57.7031C505.276 58.3698 505.625 59.1927 505.625 60.1719C505.625 61.7448 505.031 62.9427 503.844 63.7656C502.667 64.5885 500.953 65 498.703 65H490.562ZM495.078 57.9844V61.3906H498.719C500.312 61.3906 501.109 60.8333 501.109 59.7188C501.109 58.5833 500.349 58.0052 498.828 57.9844H495.078ZM495.078 54.9531H497.875C499.458 54.9323 500.25 54.4219 500.25 53.4219C500.25 52.8073 500.031 52.3698 499.594 52.1094C499.167 51.849 498.51 51.7188 497.625 51.7188H495.078V54.9531Z" fill="white"/>
</svg>
