<svg width="70" height="70" viewBox="0 0 70 70" fill="none" xmlns="http://www.w3.org/2000/svg">
<g filter="url(#filter0_d_40_86)">
<circle cx="35" cy="31" r="25" fill="#AA3D3D"/>
</g>
<path d="M44.4414 31.6738C44.4414 31.459 44.3555 31.2549 44.1836 31.0938L37.4268 24.3262C37.2119 24.1221 37.0293 24.0469 36.8145 24.0469C36.3848 24.0469 36.0625 24.3691 36.0625 24.7988C36.0625 25.0029 36.127 25.207 36.2666 25.3467L39.0166 28.1182L42.1641 31.0293L39.7793 30.9004H26.3516C25.9111 30.9004 25.5889 31.2227 25.5889 31.6738C25.5889 32.1143 25.9111 32.4365 26.3516 32.4365H39.7793L42.1748 32.3076L39.0166 35.2188L36.2666 37.9902C36.1377 38.1299 36.0625 38.334 36.0625 38.5381C36.0625 38.9678 36.3848 39.29 36.8145 39.29C37.0293 39.29 37.2012 39.2148 37.373 39.0537L44.1836 32.2432C44.3555 32.082 44.4414 31.8887 44.4414 31.6738Z" fill="white"/>
<defs>
<filter id="filter0_d_40_86" x="0" y="0" width="70" height="70" filterUnits="userSpaceOnUse" color-interpolation-filters="sRGB">
<feFlood flood-opacity="0" result="BackgroundImageFix"/>
<feColorMatrix in="SourceAlpha" type="matrix" values="0 0 0 0 0 0 0 0 0 0 0 0 0 0 0 0 0 0 127 0" result="hardAlpha"/>
<feOffset dy="4"/>
<feGaussianBlur stdDeviation="5"/>
<feColorMatrix type="matrix" values="0 0 0 0 0.45 0 0 0 0 0.118125 0 0 0 0 0.118125 0 0 0 0.6 0"/>
<feBlend mode="normal" in2="BackgroundImageFix" result="effect1_dropShadow_40_86"/>
<feBlend mode="normal" in="SourceGraphic" in2="effect1_dropShadow_40_86" result="shape"/>
</filter>
</defs>
</svg>
