<svg width="81" height="14" viewBox="0 0 81 14" fill="none" xmlns="http://www.w3.org/2000/svg">
<path opacity="0.7" d="M4.33936 11H2.97705V1.96924L0.245117 2.97266V1.74219L4.12695 0.284668H4.33936V11ZM18.1528 11H16.7905V8.12891C16.1948 8.28516 15.5845 8.36328 14.9595 8.36328C13.9683 8.36328 13.2114 8.10938 12.689 7.60156C12.1714 7.09375 11.9077 6.37109 11.8979 5.43359V3.06787H13.2529V5.47754C13.2773 6.65918 13.8462 7.25 14.9595 7.25C15.5845 7.25 16.1948 7.17188 16.7905 7.01562V3.0752H18.1528V11ZM25.2207 11C25.1426 10.8438 25.0791 10.5654 25.0303 10.165C24.4004 10.8193 23.6484 11.1465 22.7744 11.1465C21.9932 11.1465 21.3511 10.9268 20.8481 10.4873C20.3501 10.043 20.1011 9.48145 20.1011 8.80273C20.1011 7.97754 20.4136 7.33789 21.0386 6.88379C21.6685 6.4248 22.5522 6.19531 23.6899 6.19531H25.0083V5.57275C25.0083 5.09912 24.8667 4.72314 24.5835 4.44482C24.3003 4.16162 23.8828 4.02002 23.3311 4.02002C22.8477 4.02002 22.4424 4.14209 22.1152 4.38623C21.7881 4.63037 21.6245 4.92578 21.6245 5.27246H20.2622C20.2622 4.87695 20.4014 4.49609 20.6797 4.12988C20.9629 3.75879 21.3438 3.46582 21.8223 3.25098C22.3057 3.03613 22.8354 2.92871 23.4116 2.92871C24.3247 2.92871 25.04 3.1582 25.5576 3.61719C26.0752 4.07129 26.3438 4.69873 26.3633 5.49951V9.14697C26.3633 9.87451 26.4561 10.4531 26.6416 10.8828V11H25.2207ZM22.9722 9.96729C23.397 9.96729 23.7998 9.85742 24.1807 9.6377C24.5615 9.41797 24.8374 9.13232 25.0083 8.78076V7.15479H23.9463C22.2861 7.15479 21.4561 7.64062 21.4561 8.6123C21.4561 9.03711 21.5977 9.36914 21.8809 9.6084C22.1641 9.84766 22.5278 9.96729 22.9722 9.96729ZM31.666 10.0405C32.1494 10.0405 32.5718 9.89404 32.9331 9.60107C33.2944 9.30811 33.4946 8.94189 33.5337 8.50244H34.8154C34.791 8.95654 34.6348 9.38867 34.3467 9.79883C34.0586 10.209 33.6729 10.5361 33.1895 10.7803C32.7109 11.0244 32.2031 11.1465 31.666 11.1465C30.5869 11.1465 29.7275 10.7876 29.0879 10.0698C28.4531 9.34717 28.1357 8.36084 28.1357 7.11084V6.88379C28.1357 6.1123 28.2773 5.42627 28.5605 4.82568C28.8438 4.2251 29.249 3.75879 29.7764 3.42676C30.3086 3.09473 30.936 2.92871 31.6587 2.92871C32.5474 2.92871 33.2847 3.19482 33.8706 3.72705C34.4614 4.25928 34.7764 4.9502 34.8154 5.7998H33.5337C33.4946 5.28711 33.2993 4.86719 32.9478 4.54004C32.6011 4.20801 32.1714 4.04199 31.6587 4.04199C30.9702 4.04199 30.4355 4.29102 30.0547 4.78906C29.6787 5.28223 29.4907 5.99756 29.4907 6.93506V7.19141C29.4907 8.10449 29.6787 8.80762 30.0547 9.30078C30.4307 9.79395 30.9678 10.0405 31.666 10.0405ZM46.5342 11H45.1792V7.61621H41.5391V11H40.1768V3.0752H41.5391V6.51025H45.1792V3.0752H46.5342V11ZM53.6094 11C53.5312 10.8438 53.4678 10.5654 53.4189 10.165C52.7891 10.8193 52.0371 11.1465 51.1631 11.1465C50.3818 11.1465 49.7397 10.9268 49.2368 10.4873C48.7388 10.043 48.4897 9.48145 48.4897 8.80273C48.4897 7.97754 48.8022 7.33789 49.4272 6.88379C50.0571 6.4248 50.9409 6.19531 52.0786 6.19531H53.397V5.57275C53.397 5.09912 53.2554 4.72314 52.9722 4.44482C52.689 4.16162 52.2715 4.02002 51.7197 4.02002C51.2363 4.02002 50.8311 4.14209 50.5039 4.38623C50.1768 4.63037 50.0132 4.92578 50.0132 5.27246H48.6509C48.6509 4.87695 48.79 4.49609 49.0684 4.12988C49.3516 3.75879 49.7324 3.46582 50.2109 3.25098C50.6943 3.03613 51.2241 2.92871 51.8003 2.92871C52.7134 2.92871 53.4287 3.1582 53.9463 3.61719C54.4639 4.07129 54.7324 4.69873 54.752 5.49951V9.14697C54.752 9.87451 54.8447 10.4531 55.0303 10.8828V11H53.6094ZM51.3608 9.96729C51.7856 9.96729 52.1885 9.85742 52.5693 9.6377C52.9502 9.41797 53.2261 9.13232 53.397 8.78076V7.15479H52.335C50.6748 7.15479 49.8447 7.64062 49.8447 8.6123C49.8447 9.03711 49.9863 9.36914 50.2695 9.6084C50.5527 9.84766 50.9165 9.96729 51.3608 9.96729ZM61.2339 5.24316C61.2339 4.87207 61.0923 4.5791 60.8091 4.36426C60.5259 4.14453 60.1377 4.03467 59.6445 4.03467C59.166 4.03467 58.7656 4.15918 58.4434 4.4082C58.126 4.65723 57.9673 4.9502 57.9673 5.28711H56.6196C56.6196 4.59863 56.9077 4.03467 57.4839 3.59521C58.0601 3.15576 58.7803 2.93604 59.6445 2.93604C60.5723 2.93604 61.2949 3.13623 61.8125 3.53662C62.3301 3.93213 62.5889 4.49854 62.5889 5.23584C62.5889 5.59229 62.4814 5.91943 62.2666 6.21729C62.0518 6.51514 61.7466 6.75195 61.3511 6.92773C62.2739 7.24023 62.7354 7.85547 62.7354 8.77344C62.7354 9.50098 62.4546 10.0771 61.8931 10.502C61.3315 10.9268 60.582 11.1392 59.6445 11.1392C58.7314 11.1392 57.9771 10.917 57.3813 10.4727C56.7905 10.0234 56.4951 9.41797 56.4951 8.65625H57.8428C57.8428 9.04199 58.0137 9.37402 58.3555 9.65234C58.7021 9.92578 59.1318 10.0625 59.6445 10.0625C60.1621 10.0625 60.5796 9.94287 60.897 9.70361C61.2144 9.46436 61.373 9.1543 61.373 8.77344C61.373 8.3291 61.2388 8.01172 60.9702 7.82129C60.7065 7.62598 60.2939 7.52832 59.7324 7.52832H58.3774V6.38574H59.8496C60.7725 6.36133 61.2339 5.98047 61.2339 5.24316ZM69.3857 11C69.3076 10.8438 69.2441 10.5654 69.1953 10.165C68.5654 10.8193 67.8135 11.1465 66.9395 11.1465C66.1582 11.1465 65.5161 10.9268 65.0132 10.4873C64.5151 10.043 64.2661 9.48145 64.2661 8.80273C64.2661 7.97754 64.5786 7.33789 65.2036 6.88379C65.8335 6.4248 66.7173 6.19531 67.855 6.19531H69.1733V5.57275C69.1733 5.09912 69.0317 4.72314 68.7485 4.44482C68.4653 4.16162 68.0479 4.02002 67.4961 4.02002C67.0127 4.02002 66.6074 4.14209 66.2803 4.38623C65.9531 4.63037 65.7896 4.92578 65.7896 5.27246H64.4272C64.4272 4.87695 64.5664 4.49609 64.8447 4.12988C65.1279 3.75879 65.5088 3.46582 65.9873 3.25098C66.4707 3.03613 67.0005 2.92871 67.5767 2.92871C68.4897 2.92871 69.2051 3.1582 69.7227 3.61719C70.2402 4.07129 70.5088 4.69873 70.5283 5.49951V9.14697C70.5283 9.87451 70.6211 10.4531 70.8066 10.8828V11H69.3857ZM67.1372 9.96729C67.562 9.96729 67.9648 9.85742 68.3457 9.6377C68.7266 9.41797 69.0024 9.13232 69.1733 8.78076V7.15479H68.1113C66.4512 7.15479 65.6211 7.64062 65.6211 8.6123C65.6211 9.03711 65.7627 9.36914 66.0459 9.6084C66.3291 9.84766 66.6929 9.96729 67.1372 9.96729ZM72.5864 9.89404L73.0552 9.31543C73.5825 8.63184 73.8828 7.60645 73.9561 6.23926L74.0806 3.0752H79.1855V9.89404H80.2036V13.3291H78.8486V11H73.3188V13.3291H71.9639L71.9712 9.89404H72.5864ZM74.1904 9.89404H77.8306V4.32764H75.3916L75.311 6.21729C75.228 7.79443 74.8545 9.02002 74.1904 9.89404Z" fill="white"/>
</svg>
