<svg width="133" height="28" viewBox="0 0 133 28" fill="none" xmlns="http://www.w3.org/2000/svg">
<rect opacity="0.3" width="133" height="28" rx="4" fill="#C4C4C4"/>
<path d="M18.4336 19H17.02V14.0708H11.644V19H10.2378V8.33594H11.644V12.9209H17.02V8.33594H18.4336V19ZM20.3599 14.9644C20.3599 14.188 20.5112 13.4897 20.814 12.8696C21.1216 12.2495 21.5464 11.771 22.0884 11.4341C22.6353 11.0972 23.2578 10.9287 23.9561 10.9287C25.0352 10.9287 25.9067 11.3022 26.5708 12.0493C27.2397 12.7964 27.5742 13.79 27.5742 15.0303V15.1255C27.5742 15.897 27.4253 16.5903 27.1274 17.2056C26.8345 17.8159 26.4121 18.292 25.8604 18.6338C25.3135 18.9756 24.6836 19.1465 23.9707 19.1465C22.8965 19.1465 22.0249 18.7729 21.356 18.0259C20.6919 17.2788 20.3599 16.29 20.3599 15.0596V14.9644ZM21.7222 15.1255C21.7222 16.0044 21.9248 16.71 22.3301 17.2422C22.7402 17.7744 23.2871 18.0405 23.9707 18.0405C24.6592 18.0405 25.2061 17.772 25.6113 17.2349C26.0166 16.6929 26.2192 15.936 26.2192 14.9644C26.2192 14.0952 26.0117 13.3921 25.5967 12.855C25.1865 12.313 24.6396 12.042 23.9561 12.042C23.2871 12.042 22.7476 12.3081 22.3374 12.8403C21.9272 13.3726 21.7222 14.1343 21.7222 15.1255ZM29.3979 19V11.0752H32.4888C33.5435 11.0752 34.3516 11.2607 34.9131 11.6318C35.4795 11.998 35.7627 12.5376 35.7627 13.2505C35.7627 13.6167 35.6528 13.9487 35.4331 14.2466C35.2134 14.5396 34.8887 14.7642 34.459 14.9204C34.9375 15.0327 35.3208 15.2524 35.6089 15.5796C35.9019 15.9067 36.0483 16.2974 36.0483 16.7515C36.0483 17.479 35.7798 18.0356 35.2427 18.4214C34.7104 18.8071 33.9561 19 32.9795 19H29.3979ZM30.7529 15.521V17.9087H32.9941C33.5605 17.9087 33.9829 17.8037 34.2612 17.5938C34.5444 17.3838 34.686 17.0884 34.686 16.7075C34.686 15.9165 34.105 15.521 32.9429 15.521H30.7529ZM30.7529 14.437H32.5034C33.7729 14.437 34.4077 14.0659 34.4077 13.3237C34.4077 12.5815 33.8071 12.1982 32.606 12.1738H30.7529V14.437ZM37.4839 14.9644C37.4839 14.188 37.6353 13.4897 37.938 12.8696C38.2456 12.2495 38.6704 11.771 39.2124 11.4341C39.7593 11.0972 40.3818 10.9287 41.0801 10.9287C42.1592 10.9287 43.0308 11.3022 43.6948 12.0493C44.3638 12.7964 44.6982 13.79 44.6982 15.0303V15.1255C44.6982 15.897 44.5493 16.5903 44.2515 17.2056C43.9585 17.8159 43.5361 18.292 42.9844 18.6338C42.4375 18.9756 41.8076 19.1465 41.0947 19.1465C40.0205 19.1465 39.1489 18.7729 38.48 18.0259C37.8159 17.2788 37.4839 16.29 37.4839 15.0596V14.9644ZM38.8462 15.1255C38.8462 16.0044 39.0488 16.71 39.4541 17.2422C39.8643 17.7744 40.4111 18.0405 41.0947 18.0405C41.7832 18.0405 42.3301 17.772 42.7354 17.2349C43.1406 16.6929 43.3433 15.936 43.3433 14.9644C43.3433 14.0952 43.1357 13.3921 42.7207 12.855C42.3105 12.313 41.7637 12.042 41.0801 12.042C40.4111 12.042 39.8716 12.3081 39.4614 12.8403C39.0513 13.3726 38.8462 14.1343 38.8462 15.1255ZM49.5762 18.0405C50.0596 18.0405 50.4819 17.894 50.8433 17.6011C51.2046 17.3081 51.4048 16.9419 51.4438 16.5024H52.7256C52.7012 16.9565 52.5449 17.3887 52.2568 17.7988C51.9688 18.209 51.583 18.5361 51.0996 18.7803C50.6211 19.0244 50.1133 19.1465 49.5762 19.1465C48.4971 19.1465 47.6377 18.7876 46.998 18.0698C46.3633 17.3472 46.0459 16.3608 46.0459 15.1108V14.8838C46.0459 14.1123 46.1875 13.4263 46.4707 12.8257C46.7539 12.2251 47.1592 11.7588 47.6865 11.4268C48.2188 11.0947 48.8462 10.9287 49.5688 10.9287C50.4575 10.9287 51.1948 11.1948 51.7808 11.7271C52.3716 12.2593 52.6865 12.9502 52.7256 13.7998H51.4438C51.4048 13.2871 51.2095 12.8672 50.8579 12.54C50.5112 12.208 50.0815 12.042 49.5688 12.042C48.8804 12.042 48.3457 12.291 47.9648 12.7891C47.5889 13.2822 47.4009 13.9976 47.4009 14.9351V15.1914C47.4009 16.1045 47.5889 16.8076 47.9648 17.3008C48.3408 17.7939 48.8779 18.0405 49.5762 18.0405ZM60.1377 12.1738H57.479V19H56.124V12.1738H53.5166V11.0752H60.1377V12.1738ZM66.583 11.0752H67.938V19H66.583V13.2212L62.9282 19H61.5732V11.0752H62.9282V16.8613L66.583 11.0752ZM75.4526 14.8252V19H74.0464V8.33594H77.9795C79.1465 8.33594 80.0596 8.63379 80.7188 9.22949C81.3828 9.8252 81.7148 10.6138 81.7148 11.5952C81.7148 12.6304 81.3901 13.4287 80.7407 13.9902C80.0962 14.5469 79.1709 14.8252 77.9648 14.8252H75.4526ZM75.4526 13.6753H77.9795C78.7314 13.6753 79.3076 13.4995 79.708 13.1479C80.1084 12.7915 80.3086 12.2788 80.3086 11.6099C80.3086 10.9751 80.1084 10.4673 79.708 10.0864C79.3076 9.70557 78.7583 9.50781 78.0601 9.49316H75.4526V13.6753ZM89.354 11.0752V19H87.9917V15.9165H85.9482L84.0806 19H82.6157L84.6079 15.7114C84.1001 15.5259 83.7095 15.2402 83.436 14.8545C83.1675 14.4639 83.0332 14.0098 83.0332 13.4922C83.0332 12.7695 83.3042 12.1885 83.8462 11.749C84.3882 11.3047 85.1133 11.0801 86.0215 11.0752H89.354ZM84.3955 13.5068C84.3955 13.8926 84.5273 14.2051 84.791 14.4443C85.0547 14.6787 85.4038 14.7983 85.8384 14.8032H87.9917V12.1738H86.0435C85.5405 12.1738 85.1401 12.2983 84.8423 12.5474C84.5444 12.7915 84.3955 13.1113 84.3955 13.5068ZM95.8872 13.2432C95.8872 12.8721 95.7456 12.5791 95.4624 12.3643C95.1792 12.1445 94.791 12.0347 94.2979 12.0347C93.8193 12.0347 93.4189 12.1592 93.0967 12.4082C92.7793 12.6572 92.6206 12.9502 92.6206 13.2871H91.2729C91.2729 12.5986 91.561 12.0347 92.1372 11.5952C92.7134 11.1558 93.4336 10.936 94.2979 10.936C95.2256 10.936 95.9482 11.1362 96.4658 11.5366C96.9834 11.9321 97.2422 12.4985 97.2422 13.2358C97.2422 13.5923 97.1348 13.9194 96.9199 14.2173C96.7051 14.5151 96.3999 14.752 96.0044 14.9277C96.9272 15.2402 97.3887 15.8555 97.3887 16.7734C97.3887 17.501 97.1079 18.0771 96.5464 18.502C95.9849 18.9268 95.2354 19.1392 94.2979 19.1392C93.3848 19.1392 92.6304 18.917 92.0347 18.4727C91.4438 18.0234 91.1484 17.418 91.1484 16.6562H92.4961C92.4961 17.042 92.667 17.374 93.0088 17.6523C93.3555 17.9258 93.7852 18.0625 94.2979 18.0625C94.8154 18.0625 95.2329 17.9429 95.5503 17.7036C95.8677 17.4644 96.0264 17.1543 96.0264 16.7734C96.0264 16.3291 95.8921 16.0117 95.6235 15.8213C95.3599 15.626 94.9473 15.5283 94.3857 15.5283H93.0308V14.3857H94.5029C95.4258 14.3613 95.8872 13.9805 95.8872 13.2432ZM104.039 19C103.961 18.8438 103.897 18.5654 103.849 18.165C103.219 18.8193 102.467 19.1465 101.593 19.1465C100.812 19.1465 100.169 18.9268 99.6665 18.4873C99.1685 18.043 98.9194 17.4814 98.9194 16.8027C98.9194 15.9775 99.2319 15.3379 99.8569 14.8838C100.487 14.4248 101.371 14.1953 102.508 14.1953H103.827V13.5728C103.827 13.0991 103.685 12.7231 103.402 12.4448C103.119 12.1616 102.701 12.02 102.149 12.02C101.666 12.02 101.261 12.1421 100.934 12.3862C100.606 12.6304 100.443 12.9258 100.443 13.2725H99.0806C99.0806 12.877 99.2197 12.4961 99.498 12.1299C99.7812 11.7588 100.162 11.4658 100.641 11.251C101.124 11.0361 101.654 10.9287 102.23 10.9287C103.143 10.9287 103.858 11.1582 104.376 11.6172C104.894 12.0713 105.162 12.6987 105.182 13.4995V17.147C105.182 17.8745 105.274 18.4531 105.46 18.8828V19H104.039ZM101.791 17.9673C102.215 17.9673 102.618 17.8574 102.999 17.6377C103.38 17.418 103.656 17.1323 103.827 16.7808V15.1548H102.765C101.104 15.1548 100.274 15.6406 100.274 16.6123C100.274 17.0371 100.416 17.3691 100.699 17.6084C100.982 17.8477 101.346 17.9673 101.791 17.9673ZM113.78 19H112.425V15.6162H108.785V19H107.423V11.0752H108.785V14.5103H112.425V11.0752H113.78V19ZM121.09 11.0752H122.445V19H121.09V13.2212L117.435 19H116.08V11.0752H117.435V16.8613L121.09 11.0752Z" fill="white"/>
</svg>
